<svg xmlns="http://www.w3.org/2000/svg" width="805" height="600"><rect width="805" height="600" x="0" y="0" fill="#FFFFFF" id="background"/><g id="viz"><g transform="translate(0,0)"><g transform="translate(10,19)"><g><path fill="#9467bd" d="M0,295.49623125L2.8442028985507246,295.6274234375C5.688405797101449,295.758615625,11.376811594202898,296.021,17.065217391304348,296.4566515625C22.753623188405797,296.892303125,28.442028985507246,297.501221875,34.130434782608695,298.023653125C39.81884057971015,298.546084375,45.507246376811594,298.982028125,51.19565217391304,300.0780234375C56.88405797101449,301.17401875,62.57246376811594,302.930065625,68.26086956521739,303.68011093749993C73.94927536231883,304.43015625,79.6376811594203,304.1742,85.32608695652173,303.49077343749997C91.01449275362319,302.807346875,96.70289855072463,301.69645,102.39130434782608,301.352253125C108.07971014492755,301.00805625000004,113.76811594202898,301.43055937500003,119.45652173913044,301.654375C125.14492753623188,301.878190625,130.83333333333334,301.90331875,136.52173913043478,300.64574375C142.21014492753622,299.38816875,147.89855072463766,296.847890625,153.58695652173913,293.7574234375C159.2753623188406,290.66695625,164.96376811594203,287.0263,170.65217391304347,283.4595671875C176.3405797101449,279.89283437499995,182.02898550724638,276.40002499999997,187.71739130434784,274.5735609375C193.40579710144928,272.74709687499995,199.09420289855072,272.58697812500003,204.78260869565216,272.805534375C210.4710144927536,273.02409062500004,216.15942028985503,273.621321875,221.8478260869565,273.8448453125C227.53623188405797,274.06836875,233.2246376811594,273.918184375,238.91304347826087,273.12401874999995C244.60144927536234,272.329853125,250.28985507246375,270.89170624999997,255.97826086956522,270.551015625C261.6666666666667,270.210325,267.3550724637681,270.967090625,273.04347826086956,273.043375C278.731884057971,275.119659375,284.42028985507244,278.5154625,290.1086956521739,283.87651875C295.7971014492753,289.23757500000005,301.4855072463768,296.56388437500004,307.17391304347825,302.73868281250003C312.8623188405797,308.91348125,318.5507246376812,313.93676875,324.2391304347826,320.609746875C329.92753623188406,327.28272499999997,335.6159420289855,335.60539374999996,341.30434782608694,345.45678749999996C346.99275362318843,355.30818124999996,352.6811594202898,366.6883,358.3695652173913,377.27279218750004C364.05797101449275,387.85728437500006,369.74637681159425,397.64615000000003,375.4347826086957,405.766625C381.1231884057972,413.8871,386.81159420289856,420.33918437500006,392.5,425.25932968750004C398.18840579710144,430.1794750000001,403.8768115942028,433.5676812500001,409.5652173913043,440.399025C415.25362318840575,447.23036875,420.94202898550725,457.50485000000003,426.6304347826087,467.5593140625001C432.3188405797102,477.613778125,438.00724637681157,487.44822500000004,443.695652173913,494.4019953125C449.3840579710145,501.355765625,455.072463768116,505.428859375,460.7608695652175,507.3394734375001C466.4492753623188,509.2500875,472.1376811594203,508.99822187499996,477.82608695652175,506.46700156249995C483.5144927536232,503.93578125,489.2028985507247,499.12520624999996,494.89130434782606,495.08951249999996C500.57971014492756,491.05381874999995,506.268115942029,487.79300624999996,511.9565217391305,488.0895765625C517.6449275362319,488.38614687499995,523.3333333333334,492.2401,529.0217391304348,494.0677328125C534.7101449275361,495.895365625,540.3985507246376,495.696678125,546.0869565217391,494.10250312500006C551.7753623188406,492.508328125,557.463768115942,489.51866562500004,563.1521739130435,484.78873437500005C568.8405797101449,480.058803125,574.5289855072464,473.588603125,580.2173913043479,464.88988906250006C585.9057971014493,456.191175,591.5942028985507,445.26394687500004,597.2826086956522,437.04208281250004C602.9710144927536,428.82021875000004,608.6594202898551,423.30371875,614.3478260869565,418.15771249999995C620.036231884058,413.01170625000003,625.7246376811594,408.23619375,631.4130434782609,406.204321875C637.1014492753624,404.17245,642.7898550724639,404.88421874999995,648.4782608695652,404.8898959248705C654.1666666666666,404.8955730997409,659.8550724637681,404.1951586994819,665.5434782608695,403.90152341169033C671.231884057971,403.60788812389893,676.9202898550724,403.721031948575,682.6086956521739,402.78298276803935C688.2971014492754,401.84493358750365,693.9855072463769,399.85569140175613,699.6739130434784,398.9081692657373C705.3623188405796,397.9606471297184,711.0507246376811,398.05484504342803,716.7391304347826,400.63765607810666C722.427536231884,403.22046711278546,728.1159420289855,408.2918912684333,733.804347826087,414.3861775650607C739.4927536231885,420.48046386168807,745.18115942029,427.597612299295,750.8695652173914,434.22291744862287C756.5579710144929,440.8482225979508,762.2463768115941,446.9816844589996,767.9347826086956,453.7458765113926C773.623188405797,460.51006856378564,779.3115942028985,467.9049908075228,782.1557971014494,471.6024519293914L785,475.29991305126L785,475.29991305126L782.1557971014494,471.6024519293914C779.3115942028985,467.9049908075228,773.623188405797,460.51006856378564,767.9347826086956,453.7458765113926C762.2463768115941,446.9816844589996,756.5579710144929,440.8482225979508,750.8695652173914,434.22291744862287C745.18115942029,427.597612299295,739.4927536231885,420.48046386168807,733.804347826087,414.3861775650607C728.1159420289855,408.2918912684333,722.427536231884,403.22046711278546,716.7391304347826,400.63765607810666C711.0507246376811,398.05484504342803,705.3623188405796,397.9606471297184,699.6739130434781,398.9081692657373C693.9855072463769,399.85569140175613,688.2971014492754,401.84493358750365,682.6086956521739,402.78298276803935C676.9202898550724,403.721031948575,671.231884057971,403.60788812389893,665.5434782608695,403.90152341169033C659.8550724637681,404.1951586994819,654.1666666666666,404.8955730997409,648.4782608695652,404.8898959248705C642.7898550724639,404.88421874999995,637.1014492753624,404.17245,631.4130434782609,406.204321875C625.7246376811594,408.23619375,620.036231884058,413.01170625000003,614.3478260869565,418.16297187500004C608.6594202898551,423.3142375,602.9710144927536,428.84125625,597.2826086956521,437.08065156249995C591.5942028985507,445.32004687500006,585.9057971014493,456.27181874999997,580.2173913043478,464.98689531250005C574.5289855072464,473.701971875,568.8405797101449,480.180353125,563.1521739130435,484.96930625000005C557.463768115942,489.758259375,551.7753623188406,492.857784375,546.0869565217391,494.568834375C540.3985507246376,496.279884375,534.7101449275361,496.602459375,529.0217391304348,495.3299828125C523.3333333333334,494.05750625,517.6449275362319,491.189978125,511.95652173913044,491.9809296875C506.268115942029,492.77188125,500.57971014492756,497.2213125,494.8913043478262,502.74891562499994C489.2028985507247,508.27651875,483.5144927536232,514.88229375,477.82608695652175,519.8725640625C472.1376811594203,524.862834375,466.4492753623188,528.2376,460.76086956521743,530.6875921875C455.072463768116,533.1375843750001,449.3840579710145,534.6628031250001,443.695652173913,532.8731546875C438.00724637681157,531.08350625,432.3188405797102,525.978990625,426.63043478260875,519.1187203125002C420.94202898550725,512.25845,415.25362318840575,503.642425,409.5652173913043,500.2022093750001C403.8768115942028,496.76199375000004,398.18840579710144,498.4975875,392.5,498.74156406249995C386.81159420289856,498.98554062499994,381.1231884057972,497.7378999999999,375.4347826086957,496.376890625C369.74637681159425,495.01588124999995,364.05797101449275,493.54150312499996,358.3695652173913,486.8980359375C352.6811594202898,480.25456875000003,346.99275362318843,468.4420125,341.30434782608694,459.54782499999993C335.6159420289855,450.6536375,329.92753623188406,444.67781875,324.2391304347826,438.21346249999993C318.5507246376812,431.74910625,312.8623188405797,424.7962125000001,307.17391304347825,420.46336406250003C301.4855072463768,416.13051562500004,295.7971014492753,414.41771250000005,290.1086956521739,410.75368125000006C284.42028985507244,407.08965000000006,278.731884057971,401.474390625,273.04347826086956,397.715690625C267.3550724637681,393.95699062500006,261.6666666666667,392.05485,255.97826086956525,389.085640625C250.28985507246375,386.11643125,244.60144927536234,382.080153125,238.91304347826087,377.364246875C233.2246376811594,372.648340625,227.53623188405797,367.25280625000005,221.84782608695653,363.7421734375C216.15942028985503,360.23154062500004,210.4710144927536,358.60580937500004,204.78260869565213,357.71171562499995C199.09420289855072,356.817621875,193.40579710144928,356.65516562500005,187.71739130434784,354.97187343750005C182.02898550724638,353.28858125000005,176.3405797101449,350.084453125,170.65217391304347,348.0213171875C164.96376811594203,345.95818125000005,159.2753623188406,345.0360375,153.58695652173913,345.5838890625C147.89855072463766,346.131740625,142.21014492753622,348.14958750000005,136.52173913043478,348.30561562500003C130.83333333333334,348.46164375000006,125.14492753623188,346.755853125,119.45652173913044,345.88396562500003C113.76811594202898,345.012078125,108.07971014492755,344.97409375,102.39130434782608,346.287184375C96.70289855072463,347.600275,91.01449275362319,350.26444062499996,85.32608695652173,349.7539890625C79.6376811594203,349.2435375,73.94927536231883,345.55846875,68.26086956521739,341.48449843749995C62.57246376811594,337.4105281249999,56.88405797101449,332.94765624999997,51.19565217391304,329.69765468749995C45.507246376811594,326.447653125,39.81884057971015,324.41052187500003,34.130434782608695,322.84030624999997C28.442028985507246,321.270090625,22.753623188405797,320.166790625,17.065217391304348,319.0801453125C11.376811594202898,317.9935,5.688405797101449,316.92350937500004,2.8442028985507246,316.3885140625L0,315.85351875000003Z"><title>Tape</title></path><path fill="#1f77b4" d="M0,295.49623125L2.8442028985507246,295.6274234375C5.688405797101449,295.758615625,11.376811594202898,296.021,17.065217391304348,296.4566515625C22.753623188405797,296.892303125,28.442028985507246,297.501221875,34.130434782608695,298.023653125C39.81884057971015,298.546084375,45.507246376811594,298.982028125,51.19565217391304,300.0780234375C56.88405797101449,301.17401875,62.57246376811594,302.930065625,68.26086956521739,303.68011093749993C73.94927536231883,304.43015625,79.6376811594203,304.1742,85.32608695652173,303.49077343749997C91.01449275362319,302.807346875,96.70289855072463,301.69645,102.39130434782608,301.352253125C108.07971014492755,301.00805625000004,113.76811594202898,301.43055937500003,119.45652173913044,301.654375C125.14492753623188,301.878190625,130.83333333333334,301.90331875,136.52173913043478,300.64574375C142.21014492753622,299.38816875,147.89855072463766,296.847890625,153.58695652173913,293.6569109375C159.2753623188406,290.46593125000004,164.96376811594203,286.62425,170.65217391304347,282.4538578125C176.3405797101449,278.283465625,182.02898550724638,273.7843625,187.71739130434784,269.7822703125C193.40579710144928,265.78017812499996,199.09420289855072,262.275096875,204.78260869565216,257.662040625C210.4710144927536,253.048984375,216.15942028985503,247.32795312500002,221.8478260869565,240.5150171875C227.53623188405797,233.70208125,233.2246376811594,225.797240625,238.91304347826087,218.168225C244.60144927536234,210.539209375,250.28985507246375,203.18601875000002,255.97826086956522,197.03605625C261.6666666666667,190.88609375000001,267.3550724637681,185.939359375,273.04347826086956,180.080415625C278.731884057971,174.22147187500002,284.42028985507244,167.45031874999998,290.1086956521739,162.37969687499998C295.7971014492753,157.30907499999998,301.4855072463768,153.938984375,307.17391304347825,148.9288453125C312.8623188405797,143.91870624999999,318.5507246376812,137.26851874999997,324.2391304347826,131.17640937499996C329.92753623188406,125.08429999999997,335.6159420289855,119.55026874999997,341.30434782608694,110.99969374999996C346.99275362318843,102.44911874999998,352.6811594202898,90.882,358.3695652173913,84.3378765625C364.05797101449275,77.79375312500001,369.74637681159425,76.27262499999999,375.4347826086957,75.05361874999998C381.1231884057972,73.83461249999999,386.81159420289856,72.91772812499998,392.5,73.75017031249999C398.18840579710144,74.5826125,403.8768115942028,77.16438125,409.5652173913043,75.16932499999999C415.25362318840575,73.17426874999997,420.94202898550725,66.60238749999995,426.6304347826087,59.99690468749997C432.3188405797102,53.39142187499997,438.00724637681157,46.75233750000002,443.695652173913,43.60810781250003C449.3840579710145,40.463878125000036,455.072463768116,40.81450312500001,460.7608695652175,43.016720312500006C466.4492753623188,45.2189375,472.1376811594203,49.27274687500002,477.82608695652175,54.30041718750001C483.5144927536232,59.3280875,489.2028985507247,65.32961874999997,494.89130434782606,71.19089999999996C500.57971014492756,77.05218124999996,506.268115942029,82.7732125,511.9565217391305,86.49188281250001C517.6449275362319,90.21055312500003,523.3333333333334,91.92686250000001,529.0217391304348,98.16126718750002C534.7101449275361,104.39567187499999,540.3985507246376,115.148171875,546.0869565217391,125.780875C551.7753623188406,136.413578125,557.463768115942,146.926484375,563.1521739130435,160.15439687499997C568.8405797101449,173.38230937499998,574.5289855072464,189.32522812499997,580.2173913043479,203.46330468749997C585.9057971014493,217.60138125,591.5942028985507,229.93461562500002,597.2826086956522,240.08433281249998C602.9710144927536,250.23405000000002,608.6594202898551,258.20025000000004,614.3478260869565,265.232034375C620.036231884058,272.26381875,625.7246376811594,278.36118749999997,631.4130434782609,283.45050937499997C637.1014492753624,288.53983124999996,642.7898550724639,292.62110624999997,648.4782608695652,297.9084681563168C654.1666666666666,303.1958300626338,659.8550724637681,309.6892788752675,665.5434782608695,315.0135803476803C671.231884057971,320.3378818200932,676.9202898550724,324.4930359522851,682.6086956521739,327.7014400783274C688.2971014492754,330.9098442043698,693.9855072463769,333.17149832426253,699.6739130434784,336.2977024111396C705.3623188405796,339.4239064980167,711.0507246376811,343.4146605518781,716.7391304347826,349.786524452842C722.427536231884,356.15838835380583,728.1159420289855,364.9113621018721,733.804347826087,373.27057629561386C739.4927536231885,381.6297904893557,745.18115942029,389.59524512877306,750.8695652173914,398.74991931872114C756.5579710144929,407.90459350866917,762.2463768115941,418.2484872491479,767.9347826086956,427.61038747382327C773.623188405797,436.9722876984988,779.3115942028985,445.3521944073709,782.1557971014494,449.54214776180703L785,453.73210111624314L785,475.29991305126L782.1557971014494,471.6024519293914C779.3115942028985,467.9049908075228,773.623188405797,460.51006856378564,767.9347826086956,453.7458765113926C762.2463768115941,446.9816844589996,756.5579710144929,440.8482225979508,750.8695652173914,434.22291744862287C745.18115942029,427.597612299295,739.4927536231885,420.48046386168807,733.804347826087,414.3861775650607C728.1159420289855,408.2918912684333,722.427536231884,403.22046711278546,716.7391304347826,400.63765607810666C711.0507246376811,398.05484504342803,705.3623188405796,397.9606471297184,699.6739130434781,398.9081692657373C693.9855072463769,399.85569140175613,688.2971014492754,401.84493358750365,682.6086956521739,402.78298276803935C676.9202898550724,403.721031948575,671.231884057971,403.60788812389893,665.5434782608695,403.90152341169033C659.8550724637681,404.1951586994819,654.1666666666666,404.8955730997409,648.4782608695652,404.8898959248705C642.7898550724639,404.88421874999995,637.1014492753624,404.17245,631.4130434782609,406.204321875C625.7246376811594,408.23619375,620.036231884058,413.01170625000003,614.3478260869565,418.15771250000006C608.6594202898551,423.30371875,602.9710144927536,428.82021875000004,597.2826086956521,437.0420828125C591.5942028985507,445.26394687500004,585.9057971014493,456.191175,580.2173913043478,464.8898890625C574.5289855072464,473.588603125,568.8405797101449,480.058803125,563.1521739130435,484.78873437500005C557.463768115942,489.51866562500004,551.7753623188406,492.508328125,546.0869565217391,494.10250312499994C540.3985507246376,495.696678125,534.7101449275361,495.895365625,529.0217391304348,494.06773281249997C523.3333333333334,492.2401,517.6449275362319,488.38614687499995,511.95652173913044,488.0895765625C506.268115942029,487.79300624999996,500.57971014492756,491.05381874999995,494.8913043478262,495.08951249999996C489.2028985507247,499.12520624999996,483.5144927536232,503.93578125,477.82608695652175,506.4670015625C472.1376811594203,508.99822187499996,466.4492753623188,509.2500875,460.76086956521743,507.3394734375C455.072463768116,505.428859375,449.3840579710145,501.355765625,443.695652173913,494.4019953125C438.00724637681157,487.44822500000004,432.3188405797102,477.613778125,426.63043478260875,467.5593140625001C420.94202898550725,457.50485000000003,415.25362318840575,447.23036875,409.5652173913043,440.399025C403.8768115942028,433.5676812500001,398.18840579710144,430.1794750000001,392.5,425.2593296875C386.81159420289856,420.33918437500006,381.1231884057972,413.8871,375.4347826086957,405.766625C369.74637681159425,397.64615000000003,364.05797101449275,387.85728437500006,358.3695652173913,377.27279218750004C352.6811594202898,366.6883,346.99275362318843,355.30818124999996,341.30434782608694,345.45678749999996C335.6159420289855,335.60539374999996,329.92753623188406,327.28272499999997,324.2391304347826,320.609746875C318.5507246376812,313.93676875,312.8623188405797,308.91348125,307.17391304347825,302.73868281250003C301.4855072463768,296.56388437500004,295.7971014492753,289.23757500000005,290.1086956521739,283.87651875C284.42028985507244,278.5154625,278.731884057971,275.119659375,273.04347826086956,273.043375C267.3550724637681,270.967090625,261.6666666666667,270.210325,255.97826086956525,270.551015625C250.28985507246375,270.89170624999997,244.60144927536234,272.329853125,238.91304347826087,273.12401874999995C233.2246376811594,273.918184375,227.53623188405797,274.06836875,221.84782608695653,273.8448453125C216.15942028985503,273.621321875,210.4710144927536,273.02409062500004,204.78260869565213,272.805534375C199.09420289855072,272.58697812500003,193.40579710144928,272.74709687499995,187.71739130434784,274.57356093749996C182.02898550724638,276.40002499999997,176.3405797101449,279.89283437499995,170.65217391304347,283.4595671875C164.96376811594203,287.0263,159.2753623188406,290.66695625,153.58695652173913,293.7574234375C147.89855072463766,296.847890625,142.21014492753622,299.38816875,136.52173913043478,300.64574375C130.83333333333334,301.90331875,125.14492753623188,301.878190625,119.45652173913044,301.654375C113.76811594202898,301.43055937500003,108.07971014492755,301.00805625000004,102.39130434782608,301.35225312500006C96.70289855072463,301.69645,91.01449275362319,302.807346875,85.32608695652173,303.49077343749997C79.6376811594203,304.1742,73.94927536231883,304.43015625,68.26086956521739,303.68011093750005C62.57246376811594,302.930065625,56.88405797101449,301.17401875,51.19565217391304,300.0780234375C45.507246376811594,298.982028125,39.81884057971015,298.546084375,34.130434782608695,298.023653125C28.442028985507246,297.501221875,22.753623188405797,296.892303125,17.065217391304348,296.4566515625C11.376811594202898,296.021,5.688405797101449,295.758615625,2.8442028985507246,295.6274234375L0,295.49623125Z"><title>Disc</title></path><path fill="#ff7f0e" d="M0,295.49623125L2.8442028985507246,295.6274234375C5.688405797101449,295.758615625,11.376811594202898,296.021,17.065217391304348,296.4566515625C22.753623188405797,296.892303125,28.442028985507246,297.501221875,34.130434782608695,298.023653125C39.81884057971015,298.546084375,45.507246376811594,298.982028125,51.19565217391304,300.0780234375C56.88405797101449,301.17401875,62.57246376811594,302.930065625,68.26086956521739,303.68011093749993C73.94927536231883,304.43015625,79.6376811594203,304.1742,85.32608695652173,303.49077343749997C91.01449275362319,302.807346875,96.70289855072463,301.69645,102.39130434782608,301.352253125C108.07971014492755,301.00805625000004,113.76811594202898,301.43055937500003,119.45652173913044,301.654375C125.14492753623188,301.878190625,130.83333333333334,301.90331875,136.52173913043478,300.64574375C142.21014492753622,299.38816875,147.89855072463766,296.847890625,153.58695652173913,293.6569109375C159.2753623188406,290.46593125000004,164.96376811594203,286.62425,170.65217391304347,282.4538578125C176.3405797101449,278.283465625,182.02898550724638,273.7843625,187.71739130434784,269.7822703125C193.40579710144928,265.78017812499996,199.09420289855072,262.275096875,204.78260869565216,257.662040625C210.4710144927536,253.048984375,216.15942028985503,247.32795312500002,221.8478260869565,240.5150171875C227.53623188405797,233.70208125,233.2246376811594,225.797240625,238.91304347826087,218.168225C244.60144927536234,210.539209375,250.28985507246375,203.18601875000002,255.97826086956522,197.03605625C261.6666666666667,190.88609375000001,267.3550724637681,185.939359375,273.04347826086956,180.080415625C278.731884057971,174.22147187500002,284.42028985507244,167.45031874999998,290.1086956521739,162.37969687499998C295.7971014492753,157.30907499999998,301.4855072463768,153.938984375,307.17391304347825,148.9288453125C312.8623188405797,143.91870624999999,318.5507246376812,137.26851874999997,324.2391304347826,131.17640937499996C329.92753623188406,125.08429999999997,335.6159420289855,119.55026874999997,341.30434782608694,110.99969374999996C346.99275362318843,102.44911874999998,352.6811594202898,90.882,358.3695652173913,84.3378765625C364.05797101449275,77.79375312500001,369.74637681159425,76.27262499999999,375.4347826086957,75.05361874999998C381.1231884057972,73.83461249999999,386.81159420289856,72.91772812499998,392.5,73.75017031249999C398.18840579710144,74.5826125,403.8768115942028,77.16438125,409.5652173913043,75.16932499999999C415.25362318840575,73.17426874999997,420.94202898550725,66.60238749999995,426.6304347826087,59.99690468749997C432.3188405797102,53.39142187499997,438.00724637681157,46.75233750000002,443.695652173913,43.60810781250003C449.3840579710145,40.463878125000036,455.072463768116,40.81450312500001,460.7608695652175,43.016720312500006C466.4492753623188,45.2189375,472.1376811594203,49.27274687500002,477.82608695652175,54.30041718750001C483.5144927536232,59.3280875,489.2028985507247,65.32961874999997,494.89130434782606,71.19089999999996C500.57971014492756,77.05218124999996,506.268115942029,82.7732125,511.9565217391305,85.41955468750001C517.6449275362319,88.06589687500002,523.3333333333334,87.63754999999999,529.0217391304348,88.4705765625C534.7101449275361,89.303603125,540.3985507246376,91.39800312499999,546.0869565217391,93.46084687499997C551.7753623188406,95.52369062499997,557.463768115942,97.55497812499998,563.1521739130435,102.20368124999999C568.8405797101449,106.85238437499999,574.5289855072464,114.118503125,580.2173913043479,122.20303906250001C585.9057971014493,130.287575,591.5942028985507,139.19052812500001,597.2826086956522,147.7764578125C602.9710144927536,156.36238750000004,608.6594202898551,164.63129375000003,614.3478260869565,171.61925C620.036231884058,178.60720625,625.7246376811594,184.31421249999997,631.4130434782609,187.99051562499997C637.1014492753624,191.66681874999998,642.7898550724639,193.31241874999998,648.4782608695652,196.71325415088873C654.1666666666666,200.11408955177748,659.8550724637681,205.27016035355499,665.5434782608695,210.4863485629456C671.231884057971,215.70253677233623,676.9202898550724,220.97884238934003,682.6086956521739,226.89353609014518C688.2971014492754,232.80822979095032,693.9855072463769,239.3613115755568,699.6739130434784,246.05005862370174C705.3623188405796,252.73880567184665,711.0507246376811,259.56321798352997,716.7391304347826,270.06431991287974C722.427536231884,280.56542184222957,728.1159420289855,294.7432133892459,733.804347826087,308.41122566039576C739.4927536231885,322.0792379315456,745.18115942029,335.23747092682896,750.8695652173914,349.1221496780817C756.5579710144929,363.00682842933446,762.2463768115941,377.6179529365565,767.9347826086956,390.18263804592993C773.623188405797,402.74732315530355,779.3115942028985,413.2655688668286,782.1557971014494,418.5246917225911L785,423.78381457835366L785,453.73210111624314L782.1557971014494,449.54214776180703C779.3115942028985,445.3521944073709,773.623188405797,436.9722876984988,767.9347826086956,427.61038747382327C762.2463768115941,418.2484872491479,756.5579710144929,407.90459350866917,750.8695652173914,398.7499193187211C745.18115942029,389.59524512877306,739.4927536231885,381.6297904893557,733.804347826087,373.2705762956139C728.1159420289855,364.9113621018721,722.427536231884,356.15838835380583,716.7391304347826,349.786524452842C711.0507246376811,343.4146605518781,705.3623188405796,339.4239064980167,699.6739130434781,336.2977024111396C693.9855072463769,333.17149832426253,688.2971014492754,330.9098442043698,682.6086956521739,327.7014400783274C676.9202898550724,324.4930359522851,671.231884057971,320.3378818200932,665.5434782608695,315.0135803476803C659.8550724637681,309.6892788752675,654.1666666666666,303.1958300626338,648.4782608695652,297.9084681563168C642.7898550724639,292.62110624999997,637.1014492753624,288.53983124999996,631.4130434782609,283.45050937499997C625.7246376811594,278.36118749999997,620.036231884058,272.26381875,614.3478260869565,265.23203437499996C608.6594202898551,258.20025000000004,602.9710144927536,250.23405000000002,597.2826086956521,240.08433281250004C591.5942028985507,229.93461562500002,585.9057971014493,217.60138125,580.2173913043478,203.46330468749997C574.5289855072464,189.32522812499997,568.8405797101449,173.38230937499998,563.1521739130435,160.15439687499997C557.463768115942,146.926484375,551.7753623188406,136.413578125,546.0869565217391,125.780875C540.3985507246376,115.148171875,534.7101449275361,104.39567187499999,529.0217391304348,98.1612671875C523.3333333333334,91.92686250000001,517.6449275362319,90.21055312500003,511.95652173913044,86.49188281250001C506.268115942029,82.7732125,500.57971014492756,77.05218124999996,494.8913043478262,71.19089999999996C489.2028985507247,65.32961874999997,483.5144927536232,59.3280875,477.82608695652175,54.30041718750001C472.1376811594203,49.27274687500002,466.4492753623188,45.2189375,460.76086956521743,43.016720312500006C455.072463768116,40.81450312500001,449.3840579710145,40.463878125000036,443.695652173913,43.60810781250003C438.00724637681157,46.75233750000002,432.3188405797102,53.39142187499997,426.63043478260875,59.996904687499956C420.94202898550725,66.60238749999995,415.25362318840575,73.17426874999997,409.5652173913043,75.16932499999999C403.8768115942028,77.16438125,398.18840579710144,74.5826125,392.5,73.75017031249999C386.81159420289856,72.91772812499998,381.1231884057972,73.83461249999999,375.4347826086957,75.05361875C369.74637681159425,76.27262499999999,364.05797101449275,77.79375312500001,358.3695652173913,84.3378765625C352.6811594202898,90.882,346.99275362318843,102.44911874999998,341.30434782608694,110.99969374999999C335.6159420289855,119.55026874999997,329.92753623188406,125.08429999999997,324.2391304347826,131.17640937499996C318.5507246376812,137.26851874999997,312.8623188405797,143.91870624999999,307.17391304347825,148.9288453125C301.4855072463768,153.938984375,295.7971014492753,157.30907499999998,290.1086956521739,162.379696875C284.42028985507244,167.45031874999998,278.731884057971,174.22147187500002,273.04347826086956,180.08041562500003C267.3550724637681,185.939359375,261.6666666666667,190.88609375000001,255.97826086956525,197.03605625C250.28985507246375,203.18601875000002,244.60144927536234,210.539209375,238.91304347826087,218.16822499999998C233.2246376811594,225.797240625,227.53623188405797,233.70208125,221.84782608695653,240.5150171875C216.15942028985503,247.32795312500002,210.4710144927536,253.048984375,204.78260869565213,257.662040625C199.09420289855072,262.275096875,193.40579710144928,265.78017812499996,187.71739130434784,269.7822703125C182.02898550724638,273.7843625,176.3405797101449,278.283465625,170.65217391304347,282.4538578125C164.96376811594203,286.62425,159.2753623188406,290.46593125000004,153.58695652173913,293.6569109375C147.89855072463766,296.847890625,142.21014492753622,299.38816875,136.52173913043478,300.64574375C130.83333333333334,301.90331875,125.14492753623188,301.878190625,119.45652173913044,301.654375C113.76811594202898,301.43055937500003,108.07971014492755,301.00805625000004,102.39130434782608,301.35225312500006C96.70289855072463,301.69645,91.01449275362319,302.807346875,85.32608695652173,303.49077343749997C79.6376811594203,304.1742,73.94927536231883,304.43015625,68.26086956521739,303.68011093750005C62.57246376811594,302.930065625,56.88405797101449,301.17401875,51.19565217391304,300.0780234375C45.507246376811594,298.982028125,39.81884057971015,298.546084375,34.130434782608695,298.023653125C28.442028985507246,297.501221875,22.753623188405797,296.892303125,17.065217391304348,296.4566515625C11.376811594202898,296.021,5.688405797101449,295.758615625,2.8442028985507246,295.6274234375L0,295.49623125Z"><title>Download</title></path><path fill="#2ca02c" d="M0,295.49623125L2.8442028985507246,295.6274234375C5.688405797101449,295.758615625,11.376811594202898,296.021,17.065217391304348,296.4566515625C22.753623188405797,296.892303125,28.442028985507246,297.501221875,34.130434782608695,298.023653125C39.81884057971015,298.546084375,45.507246376811594,298.982028125,51.19565217391304,300.0780234375C56.88405797101449,301.17401875,62.57246376811594,302.930065625,68.26086956521739,303.68011093749993C73.94927536231883,304.43015625,79.6376811594203,304.1742,85.32608695652173,303.49077343749997C91.01449275362319,302.807346875,96.70289855072463,301.69645,102.39130434782608,301.352253125C108.07971014492755,301.00805625000004,113.76811594202898,301.43055937500003,119.45652173913044,301.654375C125.14492753623188,301.878190625,130.83333333333334,301.90331875,136.52173913043478,300.64574375C142.21014492753622,299.38816875,147.89855072463766,296.847890625,153.58695652173913,293.6569109375C159.2753623188406,290.46593125000004,164.96376811594203,286.62425,170.65217391304347,282.4538578125C176.3405797101449,278.283465625,182.02898550724638,273.7843625,187.71739130434784,269.7822703125C193.40579710144928,265.78017812499996,199.09420289855072,262.275096875,204.78260869565216,257.662040625C210.4710144927536,253.048984375,216.15942028985503,247.32795312500002,221.8478260869565,240.5150171875C227.53623188405797,233.70208125,233.2246376811594,225.797240625,238.91304347826087,218.168225C244.60144927536234,210.539209375,250.28985507246375,203.18601875000002,255.97826086956522,196.36168750000002C261.6666666666667,189.53735625000002,267.3550724637681,183.241884375,273.04347826086956,176.3760625C278.731884057971,169.51024062499997,284.42028985507244,162.07406874999995,290.1086956521739,156.98766874999998C295.7971014492753,151.90126874999999,301.4855072463768,149.16464062500003,307.17391304347825,144.24157343750002C312.8623188405797,139.31850625000004,318.5507246376812,132.20900000000003,324.2391304347826,125.560565625C329.92753623188406,118.91213125000002,335.6159420289855,112.72476875000002,341.30434782608694,103.74350937500002C346.99275362318843,94.76225000000004,352.6811594202898,82.98709375000003,358.3695652173913,76.40206406250002C364.05797101449275,69.81703437499999,369.74637681159425,68.42213124999996,375.4347826086957,67.17390624999996C381.1231884057972,65.92568124999995,386.81159420289856,64.82413437499996,392.5,65.05116406249998C398.18840579710144,65.27819374999997,403.8768115942028,66.83379999999998,409.5652173913043,63.249828124999986C415.25362318840575,59.66585624999998,420.94202898550725,50.942306249999966,426.6304347826087,44.02827343749998C432.3188405797102,37.11424062499999,438.00724637681157,32.00972500000003,443.695652173913,30.18676718750004C449.3840579710145,28.36380937500004,455.072463768116,29.822409375000007,460.7608695652175,32.26714218749999C466.4492753623188,34.711874999999985,472.1376811594203,38.14274062500001,477.82608695652175,43.08275468750002C483.5144927536232,48.02276875000003,489.2028985507247,54.47193125000003,494.89130434782606,59.90837187500002C500.57971014492756,65.3448125,506.268115942029,69.76853125000001,511.9565217391305,70.5635734375C517.6449275362319,71.35861562500001,523.3333333333334,68.52498125000004,529.0217391304348,68.15127343750002C534.7101449275361,67.77756562500002,540.3985507246376,69.86378437500001,546.0869565217391,72.85169375C551.7753623188406,75.83960312499998,557.463768115942,79.72920312499998,563.1521739130435,85.103115625C568.8405797101449,90.477028125,574.5289855072464,97.33525312500001,580.2173913043479,106.7305421875C585.9057971014493,116.12583124999999,591.5942028985507,128.058184375,597.2826086956522,137.0625265625C602.9710144927536,146.06686875,608.6594202898551,152.14319999999998,614.3478260869565,158.298421875C620.036231884058,164.45364375,625.7246376811594,170.68775624999998,631.4130434782609,174.76260312500003C637.1014492753624,178.83745,642.7898550724639,180.75303124999996,648.4782608695652,184.51940151389798C654.1666666666666,188.285771777796,659.8550724637681,193.90293105559195,665.5434782608695,199.40168692515135C671.231884057971,204.90044279471076,676.9202898550724,210.28079525603354,682.6086956521739,216.3527314351079C688.2971014492754,222.4246676141823,693.9855072463769,229.18818751100832,699.6739130434784,235.99182406425413C705.3623188405796,242.79546061749997,711.0507246376811,249.63921382716558,716.7391304347826,260.1788812564729C722.427536231884,270.71854868578026,728.1159420289855,284.9541303347293,733.804347826087,298.6625719236868C739.4927536231885,312.3710135126443,745.18115942029,325.55231504161026,750.8695652173914,339.1984761742758C756.5579710144929,352.84463730694137,762.2463768115941,366.9556580433064,767.9347826086956,379.338872350839C773.623188405797,391.7220866583716,779.3115942028985,402.37749453707164,782.1557971014494,407.70519847642163L785,413.0329024157717L785,423.78381457835366L782.1557971014494,418.5246917225911C779.3115942028985,413.2655688668286,773.623188405797,402.74732315530355,767.9347826086956,390.18263804593C762.2463768115941,377.6179529365565,756.5579710144929,363.00682842933446,750.8695652173914,349.1221496780817C745.18115942029,335.23747092682896,739.4927536231885,322.0792379315456,733.804347826087,308.4112256603957C728.1159420289855,294.7432133892459,722.427536231884,280.56542184222957,716.7391304347826,270.0643199128798C711.0507246376811,259.56321798352997,705.3623188405796,252.73880567184665,699.6739130434781,246.05005862370172C693.9855072463769,239.3613115755568,688.2971014492754,232.80822979095032,682.6086956521739,226.89353609014518C676.9202898550724,220.97884238934003,671.231884057971,215.70253677233623,665.5434782608695,210.48634856294564C659.8550724637681,205.27016035355499,654.1666666666666,200.11408955177748,648.4782608695652,196.71325415088873C642.7898550724639,193.31241874999998,637.1014492753624,191.66681874999998,631.4130434782609,187.99051562499997C625.7246376811594,184.31421249999997,620.036231884058,178.60720625,614.3478260869565,171.61925C608.6594202898551,164.63129375000003,602.9710144927536,156.36238750000004,597.2826086956521,147.7764578125C591.5942028985507,139.19052812500001,585.9057971014493,130.287575,580.2173913043478,122.2030390625C574.5289855072464,114.118503125,568.8405797101449,106.85238437499999,563.1521739130435,102.20368124999999C557.463768115942,97.55497812499998,551.7753623188406,95.52369062499997,546.0869565217391,93.46084687499997C540.3985507246376,91.39800312499999,534.7101449275361,89.303603125,529.0217391304348,88.4705765625C523.3333333333334,87.63754999999999,517.6449275362319,88.06589687500002,511.95652173913044,85.41955468750001C506.268115942029,82.7732125,500.57971014492756,77.05218124999996,494.8913043478262,71.19089999999996C489.2028985507247,65.32961874999997,483.5144927536232,59.3280875,477.82608695652175,54.30041718750001C472.1376811594203,49.27274687500002,466.4492753623188,45.2189375,460.76086956521743,43.016720312500006C455.072463768116,40.81450312500001,449.3840579710145,40.463878125000036,443.695652173913,43.60810781250003C438.00724637681157,46.75233750000002,432.3188405797102,53.39142187499997,426.63043478260875,59.996904687499956C420.94202898550725,66.60238749999995,415.25362318840575,73.17426874999997,409.5652173913043,75.16932499999999C403.8768115942028,77.16438125,398.18840579710144,74.5826125,392.5,73.75017031249999C386.81159420289856,72.91772812499998,381.1231884057972,73.83461249999999,375.4347826086957,75.05361875C369.74637681159425,76.27262499999999,364.05797101449275,77.79375312500001,358.3695652173913,84.3378765625C352.6811594202898,90.882,346.99275362318843,102.44911874999998,341.30434782608694,110.99969374999999C335.6159420289855,119.55026874999997,329.92753623188406,125.08429999999997,324.2391304347826,131.17640937499996C318.5507246376812,137.26851874999997,312.8623188405797,143.91870624999999,307.17391304347825,148.9288453125C301.4855072463768,153.938984375,295.7971014492753,157.30907499999998,290.1086956521739,162.379696875C284.42028985507244,167.45031874999998,278.731884057971,174.22147187500002,273.04347826086956,180.08041562500003C267.3550724637681,185.939359375,261.6666666666667,190.88609375000001,255.97826086956525,197.03605625C250.28985507246375,203.18601875000002,244.60144927536234,210.539209375,238.91304347826087,218.16822499999998C233.2246376811594,225.797240625,227.53623188405797,233.70208125,221.84782608695653,240.5150171875C216.15942028985503,247.32795312500002,210.4710144927536,253.048984375,204.78260869565213,257.662040625C199.09420289855072,262.275096875,193.40579710144928,265.78017812499996,187.71739130434784,269.7822703125C182.02898550724638,273.7843625,176.3405797101449,278.283465625,170.65217391304347,282.4538578125C164.96376811594203,286.62425,159.2753623188406,290.46593125000004,153.58695652173913,293.6569109375C147.89855072463766,296.847890625,142.21014492753622,299.38816875,136.52173913043478,300.64574375C130.83333333333334,301.90331875,125.14492753623188,301.878190625,119.45652173913044,301.654375C113.76811594202898,301.43055937500003,108.07971014492755,301.00805625000004,102.39130434782608,301.35225312500006C96.70289855072463,301.69645,91.01449275362319,302.807346875,85.32608695652173,303.49077343749997C79.6376811594203,304.1742,73.94927536231883,304.43015625,68.26086956521739,303.68011093750005C62.57246376811594,302.930065625,56.88405797101449,301.17401875,51.19565217391304,300.0780234375C45.507246376811594,298.982028125,39.81884057971015,298.546084375,34.130434782608695,298.023653125C28.442028985507246,297.501221875,22.753623188405797,296.892303125,17.065217391304348,296.4566515625C11.376811594202898,296.021,5.688405797101449,295.758615625,2.8442028985507246,295.6274234375L0,295.49623125Z"><title>Other</title></path><path fill="#d62728" d="M0,295.49623125L2.8442028985507246,295.6274234375C5.688405797101449,295.758615625,11.376811594202898,296.021,17.065217391304348,296.4566515625C22.753623188405797,296.892303125,28.442028985507246,297.501221875,34.130434782608695,298.023653125C39.81884057971015,298.546084375,45.507246376811594,298.982028125,51.19565217391304,300.0780234375C56.88405797101449,301.17401875,62.57246376811594,302.930065625,68.26086956521739,303.68011093749993C73.94927536231883,304.43015625,79.6376811594203,304.1742,85.32608695652173,303.49077343749997C91.01449275362319,302.807346875,96.70289855072463,301.69645,102.39130434782608,301.352253125C108.07971014492755,301.00805625000004,113.76811594202898,301.43055937500003,119.45652173913044,301.654375C125.14492753623188,301.878190625,130.83333333333334,301.90331875,136.52173913043478,300.64574375C142.21014492753622,299.38816875,147.89855072463766,296.847890625,153.58695652173913,293.6569109375C159.2753623188406,290.46593125000004,164.96376811594203,286.62425,170.65217391304347,282.4538578125C176.3405797101449,278.283465625,182.02898550724638,273.7843625,187.71739130434784,269.7822703125C193.40579710144928,265.78017812499996,199.09420289855072,262.275096875,204.78260869565216,257.662040625C210.4710144927536,253.048984375,216.15942028985503,247.32795312500002,221.8478260869565,240.5150171875C227.53623188405797,233.70208125,233.2246376811594,225.797240625,238.91304347826087,218.168225C244.60144927536234,210.539209375,250.28985507246375,203.18601875000002,255.97826086956522,196.36168750000002C261.6666666666667,189.53735625000002,267.3550724637681,183.241884375,273.04347826086956,176.3760625C278.731884057971,169.51024062499997,284.42028985507244,162.07406874999995,290.1086956521739,156.98766874999998C295.7971014492753,151.90126874999999,301.4855072463768,149.16464062500003,307.17391304347825,144.24157343750002C312.8623188405797,139.31850625000004,318.5507246376812,132.20900000000003,324.2391304347826,125.560565625C329.92753623188406,118.91213125000002,335.6159420289855,112.72476875000002,341.30434782608694,103.74350937500002C346.99275362318843,94.76225000000004,352.6811594202898,82.98709375000003,358.3695652173913,76.40206406250002C364.05797101449275,69.81703437499999,369.74637681159425,68.42213124999996,375.4347826086957,67.17390624999996C381.1231884057972,65.92568124999995,386.81159420289856,64.82413437499996,392.5,65.05116406249998C398.18840579710144,65.27819374999997,403.8768115942028,66.83379999999998,409.5652173913043,63.249828124999986C415.25362318840575,59.66585624999998,420.94202898550725,50.942306249999966,426.6304347826087,44.02827343749998C432.3188405797102,37.11424062499999,438.00724637681157,32.00972500000003,443.695652173913,30.18676718750004C449.3840579710145,28.36380937500004,455.072463768116,29.822409375000007,460.7608695652175,32.26714218749999C466.4492753623188,34.711874999999985,472.1376811594203,38.14274062500001,477.82608695652175,43.08275468750002C483.5144927536232,48.02276875000003,489.2028985507247,54.47193125000003,494.89130434782606,59.90837187500002C500.57971014492756,65.3448125,506.268115942029,69.76853125000001,511.9565217391305,70.5232515625C517.6449275362319,71.277971875,523.3333333333334,68.36369375000004,529.0217391304348,66.99888593750002C534.7101449275361,65.63407812500002,540.3985507246376,65.81874062499999,546.0869565217391,67.45031562499997C551.7753623188406,69.08189062499999,557.463768115942,72.16037812500001,563.1521739130435,76.94640937500003C568.8405797101449,81.73244062500004,574.5289855072464,88.22601562500004,580.2173913043479,97.13977968750004C585.9057971014493,106.05354375000003,591.5942028985507,117.38749687500002,597.2826086956522,125.85713593750002C602.9710144927536,134.326775,608.6594202898551,139.9321,614.3478260869565,145.26802812499997C620.036231884058,150.60395624999998,625.7246376811594,155.67048749999995,631.4130434782609,158.03954374999998C637.1014492753624,160.40859999999998,642.7898550724639,160.08018125,648.4782608695652,160.5084966799449C654.1666666666666,160.93681210988976,659.8550724637681,162.12186171977953,665.5434782608695,162.93978650099206C671.231884057971,163.75771128220455,676.9202898550724,164.2085112347398,682.6086956521739,165.6367346818454C688.2971014492754,167.06495812895105,693.9855072463769,169.47060507062704,699.6739130434784,171.15101970456973C705.3623188405796,172.83143433851242,711.0507246376811,173.7866166647218,716.7391304347826,171.85225949987162C722.427536231884,169.91790233502147,728.1159420289855,165.09400567911175,733.804347826087,159.3237947440724C739.4927536231885,153.55358380903306,745.18115942029,146.83705859486403,750.8695652173914,140.58693805190896C756.5579710144929,134.33681750895386,762.2463768115941,128.55310163721268,767.9347826086956,122.43052629542025C773.623188405797,116.30795095362782,779.3115942028985,109.84651614178414,782.1557971014494,106.6157987358623L785,103.38508132994043L785,413.0329024157717L782.1557971014494,407.70519847642163C779.3115942028985,402.37749453707164,773.623188405797,391.7220866583716,767.9347826086956,379.33887235083904C762.2463768115941,366.9556580433064,756.5579710144929,352.84463730694137,750.8695652173914,339.1984761742758C745.18115942029,325.55231504161026,739.4927536231885,312.3710135126443,733.804347826087,298.6625719236868C728.1159420289855,284.9541303347293,722.427536231884,270.71854868578026,716.7391304347826,260.17888125647295C711.0507246376811,249.63921382716558,705.3623188405796,242.79546061749997,699.6739130434781,235.99182406425413C693.9855072463769,229.18818751100832,688.2971014492754,222.4246676141823,682.6086956521739,216.35273143510793C676.9202898550724,210.28079525603354,671.231884057971,204.90044279471076,665.5434782608695,199.40168692515135C659.8550724637681,193.90293105559195,654.1666666666666,188.285771777796,648.4782608695652,184.51940151389798C642.7898550724639,180.75303124999996,637.1014492753624,178.83745,631.4130434782609,174.76260312499997C625.7246376811594,170.68775624999998,620.036231884058,164.45364375,614.3478260869565,158.29842187499997C608.6594202898551,152.14319999999998,602.9710144927536,146.06686875,597.2826086956521,137.06252656249998C591.5942028985507,128.058184375,585.9057971014493,116.12583124999999,580.2173913043478,106.7305421875C574.5289855072464,97.33525312500001,568.8405797101449,90.477028125,563.1521739130435,85.103115625C557.463768115942,79.72920312499998,551.7753623188406,75.83960312499998,546.0869565217391,72.85169375C540.3985507246376,69.86378437500001,534.7101449275361,67.77756562500002,529.0217391304348,68.15127343750002C523.3333333333334,68.52498125000004,517.6449275362319,71.35861562500001,511.95652173913044,70.56357343750001C506.268115942029,69.76853125000001,500.57971014492756,65.3448125,494.8913043478262,59.90837187500002C489.2028985507247,54.47193125000003,483.5144927536232,48.02276875000003,477.82608695652175,43.08275468750001C472.1376811594203,38.14274062500001,466.4492753623188,34.711874999999985,460.76086956521743,32.26714218749999C455.072463768116,29.822409375000007,449.3840579710145,28.36380937500004,443.695652173913,30.18676718750004C438.00724637681157,32.00972500000003,432.3188405797102,37.11424062499999,426.63043478260875,44.02827343749998C420.94202898550725,50.942306249999966,415.25362318840575,59.66585624999998,409.5652173913043,63.249828124999986C403.8768115942028,66.83379999999998,398.18840579710144,65.27819374999997,392.5,65.05116406249998C386.81159420289856,64.82413437499996,381.1231884057972,65.92568124999995,375.4347826086957,67.17390624999996C369.74637681159425,68.42213124999996,364.05797101449275,69.81703437499999,358.3695652173913,76.4020640625C352.6811594202898,82.98709375000003,346.99275362318843,94.76225000000004,341.30434782608694,103.74350937500003C335.6159420289855,112.72476875000002,329.92753623188406,118.91213125000002,324.2391304347826,125.560565625C318.5507246376812,132.20900000000003,312.8623188405797,139.31850625000004,307.17391304347825,144.24157343750002C301.4855072463768,149.16464062500003,295.7971014492753,151.90126874999999,290.1086956521739,156.98766874999998C284.42028985507244,162.07406874999995,278.731884057971,169.51024062499997,273.04347826086956,176.3760625C267.3550724637681,183.241884375,261.6666666666667,189.53735625000002,255.97826086956525,196.36168750000002C250.28985507246375,203.18601875000002,244.60144927536234,210.539209375,238.91304347826087,218.16822499999998C233.2246376811594,225.797240625,227.53623188405797,233.70208125,221.84782608695653,240.5150171875C216.15942028985503,247.32795312500002,210.4710144927536,253.048984375,204.78260869565213,257.662040625C199.09420289855072,262.275096875,193.40579710144928,265.78017812499996,187.71739130434784,269.7822703125C182.02898550724638,273.7843625,176.3405797101449,278.283465625,170.65217391304347,282.4538578125C164.96376811594203,286.62425,159.2753623188406,290.46593125000004,153.58695652173913,293.6569109375C147.89855072463766,296.847890625,142.21014492753622,299.38816875,136.52173913043478,300.64574375C130.83333333333334,301.90331875,125.14492753623188,301.878190625,119.45652173913044,301.654375C113.76811594202898,301.43055937500003,108.07971014492755,301.00805625000004,102.39130434782608,301.35225312500006C96.70289855072463,301.69645,91.01449275362319,302.807346875,85.32608695652173,303.49077343749997C79.6376811594203,304.1742,73.94927536231883,304.43015625,68.26086956521739,303.68011093750005C62.57246376811594,302.930065625,56.88405797101449,301.17401875,51.19565217391304,300.0780234375C45.507246376811594,298.982028125,39.81884057971015,298.546084375,34.130434782608695,298.023653125C28.442028985507246,297.501221875,22.753623188405797,296.892303125,17.065217391304348,296.4566515625C11.376811594202898,296.021,5.688405797101449,295.758615625,2.8442028985507246,295.6274234375L0,295.49623125Z"><title>Streaming</title></path><path fill="#8c564b" d="M0,245.14648125000005L2.8442028985507246,244.61148593750002C5.688405797101449,244.07649062500005,11.376811594202898,243.00650000000005,17.065217391304348,241.91985468750002C22.753623188405797,240.83320937500002,28.442028985507246,239.729909375,34.130434782608695,238.15969375C39.81884057971015,236.589478125,45.507246376811594,234.552346875,51.19565217391304,231.30234531250002C56.88405797101449,228.05234375,62.57246376811594,223.58947187500004,68.26086956521739,219.51550156250002C73.94927536231883,215.44153125,79.6376811594203,211.75646249999997,85.32608695652173,211.24601093749993C91.01449275362319,210.73555937499995,96.70289855072463,213.399725,102.39130434782608,214.712815625C108.07971014492755,216.02590625000002,113.76811594202898,215.987921875,119.45652173913044,215.11603437500003C125.14492753623188,214.24414687500004,130.83333333333334,212.53835625000002,136.52173913043478,212.69438437500003C142.21014492753622,212.85041250000003,147.89855072463766,214.868259375,153.58695652173913,215.41611093749998C159.2753623188406,215.9639625,164.96376811594203,215.04181875000003,170.65217391304347,212.9786828125C176.3405797101449,210.915546875,182.02898550724638,207.71141874999998,187.71739130434784,206.02812656249998C193.40579710144928,204.34483437499998,199.09420289855072,204.18237812499999,204.78260869565216,203.288284375C210.4710144927536,202.39419062499996,216.15942028985503,200.768459375,221.8478260869565,197.2578265625C227.53623188405797,193.74719374999995,233.2246376811594,188.35165937499997,238.91304347826087,183.63575312499998C244.60144927536234,178.919846875,250.28985507246375,174.88356875,255.97826086956522,171.914359375C261.6666666666667,168.94514999999998,267.3550724637681,167.043009375,273.04347826086956,163.284309375C278.731884057971,159.52560937499996,284.42028985507244,153.91034999999997,290.1086956521739,150.24631874999997C295.7971014492753,146.58228749999998,301.4855072463768,144.86948437499998,307.17391304347825,140.5366359375C312.8623188405797,136.2037875,318.5507246376812,129.25089375000002,324.2391304347826,122.78653750000001C329.92753623188406,116.32218124999997,335.6159420289855,110.34636249999998,341.30434782608694,101.45217499999997C346.99275362318843,92.55798749999997,352.6811594202898,80.74543124999998,358.3695652173913,74.10196406249997C364.05797101449275,67.45849687499997,369.74637681159425,65.98411874999995,375.4347826086957,64.62310937499996C381.1231884057972,63.26209999999995,386.81159420289856,62.014459374999944,392.5,62.25843593749996C398.18840579710144,62.50241249999997,403.8768115942028,64.23800625,409.5652173913043,60.797790625000005C415.25362318840575,57.357575000000004,420.94202898550725,48.74154999999999,426.6304347826087,41.88127968749999C432.3188405797102,35.021009375,438.00724637681157,29.916493750000015,443.695652173913,28.12684531250001C449.3840579710145,26.337196875000007,455.072463768116,27.862415624999983,460.7608695652175,30.312407812499984C466.4492753623188,32.762399999999985,472.1376811594203,36.13716562500001,477.82608695652175,41.1274359375C483.5144927536232,46.11770625,489.2028985507247,52.72348124999996,494.89130434782606,58.25108437499997C500.57971014492756,63.77868749999997,506.268115942029,68.22811875,511.9565217391305,69.0190703125C517.6449275362319,69.81002187500002,523.3333333333334,66.94249375000003,529.0217391304348,65.67001718750002C534.7101449275361,64.39754062499999,540.3985507246376,64.72011562499996,546.0869565217391,66.43116562499996C551.7753623188406,68.14221562499996,557.463768115942,71.24174062499999,563.1521739130435,76.03069375C568.8405797101449,80.819646875,574.5289855072464,87.29802812500002,580.2173913043479,96.0131046875C585.9057971014493,104.72818125000002,591.5942028985507,115.67995312500001,597.2826086956522,123.91934843750003C602.9710144927536,132.15874375,608.6594202898551,137.6857625,614.3478260869565,142.83702812500002C620.036231884058,147.98829375,625.7246376811594,152.76380625000002,631.4130434782609,154.79567812500002C637.1014492753624,156.82755,642.7898550724639,156.11578125,648.4782608695652,156.11010407512953C654.1666666666666,156.10442690025906,659.8550724637681,156.80484130051812,665.5434782608695,157.0984765883096C671.231884057971,157.3921118761011,676.9202898550724,157.27896805142498,682.6086956521739,158.21701723196065C688.2971014492754,159.15506641249632,693.9855072463769,161.14430859824378,699.6739130434784,162.0918307342627C705.3623188405796,163.0393528702816,711.0507246376811,162.945154956572,716.7391304347826,160.3623439218933C722.427536231884,157.7795328872146,728.1159420289855,152.7081087315668,733.804347826087,146.61382243493944C739.4927536231885,140.51953613831205,745.18115942029,133.40238770070508,750.8695652173914,126.77708255137718C756.5579710144929,120.15177740204926,762.2463768115941,114.0183155410004,767.9347826086956,107.25412348860739C773.623188405797,100.48993143621436,779.3115942028985,93.09500919247718,782.1557971014494,89.3975480706086L785,85.70008694874001L785,103.38508132994043L782.1557971014494,106.61579873586227C779.3115942028985,109.84651614178414,773.623188405797,116.30795095362782,767.9347826086956,122.43052629542025C762.2463768115941,128.55310163721268,756.5579710144929,134.33681750895386,750.8695652173914,140.58693805190896C745.18115942029,146.83705859486403,739.4927536231885,153.55358380903306,733.804347826087,159.32379474407242C728.1159420289855,165.09400567911175,722.427536231884,169.91790233502147,716.7391304347826,171.85225949987162C711.0507246376811,173.7866166647218,705.3623188405796,172.83143433851242,699.6739130434781,171.15101970456973C693.9855072463769,169.47060507062704,688.2971014492754,167.06495812895105,682.6086956521739,165.63673468184544C676.9202898550724,164.2085112347398,671.231884057971,163.75771128220455,665.5434782608695,162.93978650099206C659.8550724637681,162.12186171977953,654.1666666666666,160.93681210988976,648.4782608695652,160.5084966799449C642.7898550724639,160.08018125,637.1014492753624,160.40859999999998,631.4130434782609,158.03954374999998C625.7246376811594,155.67048749999995,620.036231884058,150.60395624999998,614.3478260869565,145.26802812499997C608.6594202898551,139.9321,602.9710144927536,134.326775,597.2826086956521,125.85713593750002C591.5942028985507,117.38749687500002,585.9057971014493,106.05354375000003,580.2173913043478,97.13977968750004C574.5289855072464,88.22601562500004,568.8405797101449,81.73244062500004,563.1521739130435,76.94640937500003C557.463768115942,72.16037812500001,551.7753623188406,69.08189062499999,546.0869565217391,67.45031562499997C540.3985507246376,65.81874062499999,534.7101449275361,65.63407812500002,529.0217391304348,66.99888593750003C523.3333333333334,68.36369375000004,517.6449275362319,71.277971875,511.95652173913044,70.52325156250001C506.268115942029,69.76853125000001,500.57971014492756,65.3448125,494.8913043478262,59.90837187500002C489.2028985507247,54.47193125000003,483.5144927536232,48.02276875000003,477.82608695652175,43.08275468750001C472.1376811594203,38.14274062500001,466.4492753623188,34.711874999999985,460.76086956521743,32.26714218749999C455.072463768116,29.822409375000007,449.3840579710145,28.36380937500004,443.695652173913,30.18676718750004C438.00724637681157,32.00972500000003,432.3188405797102,37.11424062499999,426.63043478260875,44.02827343749998C420.94202898550725,50.942306249999966,415.25362318840575,59.66585624999998,409.5652173913043,63.249828124999986C403.8768115942028,66.83379999999998,398.18840579710144,65.27819374999997,392.5,65.05116406249998C386.81159420289856,64.82413437499996,381.1231884057972,65.92568124999995,375.4347826086957,67.17390624999996C369.74637681159425,68.42213124999996,364.05797101449275,69.81703437499999,358.3695652173913,76.4020640625C352.6811594202898,82.98709375000003,346.99275362318843,94.76225000000004,341.30434782608694,103.74350937500003C335.6159420289855,112.72476875000002,329.92753623188406,118.91213125000002,324.2391304347826,125.560565625C318.5507246376812,132.20900000000003,312.8623188405797,139.31850625000004,307.17391304347825,144.24157343750002C301.4855072463768,149.16464062500003,295.7971014492753,151.90126874999999,290.1086956521739,156.98766874999998C284.42028985507244,162.07406874999995,278.731884057971,169.51024062499997,273.04347826086956,176.3760625C267.3550724637681,183.241884375,261.6666666666667,189.53735625000002,255.97826086956525,196.36168750000002C250.28985507246375,203.18601875000002,244.60144927536234,210.539209375,238.91304347826087,218.16822499999998C233.2246376811594,225.797240625,227.53623188405797,233.70208125,221.84782608695653,240.5150171875C216.15942028985503,247.32795312500002,210.4710144927536,253.048984375,204.78260869565213,257.662040625C199.09420289855072,262.275096875,193.40579710144928,265.78017812499996,187.71739130434784,269.7822703125C182.02898550724638,273.7843625,176.3405797101449,278.283465625,170.65217391304347,282.4538578125C164.96376811594203,286.62425,159.2753623188406,290.46593125000004,153.58695652173913,293.6569109375C147.89855072463766,296.847890625,142.21014492753622,299.38816875,136.52173913043478,300.64574375C130.83333333333334,301.90331875,125.14492753623188,301.878190625,119.45652173913044,301.654375C113.76811594202898,301.43055937500003,108.07971014492755,301.00805625000004,102.39130434782608,301.35225312500006C96.70289855072463,301.69645,91.01449275362319,302.807346875,85.32608695652173,303.49077343749997C79.6376811594203,304.1742,73.94927536231883,304.43015625,68.26086956521739,303.68011093750005C62.57246376811594,302.930065625,56.88405797101449,301.17401875,51.19565217391304,300.0780234375C45.507246376811594,298.982028125,39.81884057971015,298.546084375,34.130434782608695,298.023653125C28.442028985507246,297.501221875,22.753623188405797,296.892303125,17.065217391304348,296.4566515625C11.376811594202898,296.021,5.688405797101449,295.758615625,2.8442028985507246,295.6274234375L0,295.49623125Z"><title>Vinyl</title></path></g><g id="xAxis" transform="translate(0,561)" fill="none" font-size="10" font-family="sans-serif" text-anchor="middle"><path class="domain" stroke="currentColor" d="M0,0H785"/><g class="tick" opacity="1" transform="translate(34.130434782608695,0)"><line stroke="currentColor" y2="6"/><text fill="currentColor" y="9" dy="0.71em">1,975</text></g><g class="tick" opacity="1" transform="translate(119.45652173913044,0)"><line stroke="currentColor" y2="6"/><text fill="currentColor" y="9" dy="0.71em">1,980</text></g><g class="tick" opacity="1" transform="translate(204.78260869565216,0)"><line stroke="currentColor" y2="6"/><text fill="currentColor" y="9" dy="0.71em">1,985</text></g><g class="tick" opacity="1" transform="translate(290.1086956521739,0)"><line stroke="currentColor" y2="6"/><text fill="currentColor" y="9" dy="0.71em">1,990</text></g><g class="tick" opacity="1" transform="translate(375.4347826086957,0)"><line stroke="currentColor" y2="6"/><text fill="currentColor" y="9" dy="0.71em">1,995</text></g><g class="tick" opacity="1" transform="translate(460.76086956521743,0)"><line stroke="currentColor" y2="6"/><text fill="currentColor" y="9" dy="0.71em">2,000</text></g><g class="tick" opacity="1" transform="translate(546.0869565217391,0)"><line stroke="currentColor" y2="6"/><text fill="currentColor" y="9" dy="0.71em">2,005</text></g><g class="tick" opacity="1" transform="translate(631.4130434782609,0)"><line stroke="currentColor" y2="6"/><text fill="currentColor" y="9" dy="0.71em">2,010</text></g><g class="tick" opacity="1" transform="translate(716.7391304347826,0)"><line stroke="currentColor" y2="6"/><text fill="currentColor" y="9" dy="0.71em">2,015</text></g></g><text y="557" x="785" text-anchor="end" style="font-family: Arial, sans-serif; font-size: 12px; fill: rgb(123, 123, 123); font-weight: bold;">Year</text><text x="4" text-anchor="start" dominant-baseline="hanging" style="font-family: Arial, sans-serif; font-size: 12px; fill: rgb(123, 123, 123); font-weight: bold;">Revenues in millions</text><g id="labels"><text x="290.1086956521739" y="347.3080875" text-anchor="middle" alignment-baseline="middle" style="font-family: Arial, sans-serif; font-size: 10px; fill: black; font-weight: bold;">Tape</text><text x="460.76086956521743" y="275.33354062499996" text-anchor="middle" alignment-baseline="middle" style="font-family: Arial, sans-serif; font-size: 10px; fill: black; font-weight: bold;">Disc</text><text x="665.5434782608695" y="263.30447942161686" text-anchor="middle" alignment-baseline="middle" style="font-family: Arial, sans-serif; font-size: 10px; fill: black; font-weight: bold;">Download</text><text x="546.0869565217391" y="82.72120312499997" text-anchor="middle" alignment-baseline="middle" style="font-family: Arial, sans-serif; font-size: 10px; fill: black; font-weight: bold;">Other</text><text x="785" y="258.208991872856" text-anchor="end" alignment-baseline="middle" style="font-family: Arial, sans-serif; font-size: 10px; fill: black; font-weight: bold;">Streaming</text><text x="85.32608695652173" y="255.99481875" text-anchor="middle" alignment-baseline="middle" style="font-family: Arial, sans-serif; font-size: 10px; fill: black; font-weight: bold;">Vinyl</text></g></g><text x="4" y="4" style="font-family: Arial, sans-serif; font-size: 12px; fill: black; font-weight: bold; dominant-baseline: hanging;"/></g></g></svg>